<?xml version="1.0" standalone="no"?>
<!DOCTYPE svg PUBLIC "-//W3C//DTD SVG 20010904//EN"
 "http://www.w3.org/TR/2001/REC-SVG-20010904/DTD/svg10.dtd">
<svg version="1.0" xmlns="http://www.w3.org/2000/svg"
 width="400.000000pt" height="400.000000pt" viewBox="0 0 400.000000 400.000000"
 preserveAspectRatio="xMidYMid meet">
<metadata>
Created by potrace 1.11, written by Peter Selinger 2001-2013
</metadata>
<g transform="translate(0.000000,400.000000) scale(0.100000,-0.100000)"
fill="#000000" stroke="none">
<path d="M1580 2665 c0 -151 -2 -275 -5 -275 -3 0 -25 15 -49 34 -77 58 -125
71 -266 71 -124 0 -126 0 -200 -37 -211 -103 -323 -334 -307 -628 7 -122 24
-190 69 -278 130 -258 488 -342 704 -166 l54 44 0 -50 0 -50 135 0 135 0 0
805 0 805 -135 0 -135 0 0 -275z m-186 -427 c57 -17 118 -82 147 -154 20 -51
23 -77 24 -189 0 -123 -2 -133 -29 -193 -66 -142 -208 -196 -344 -131 -178 86
-210 469 -51 616 61 56 165 77 253 51z"/>
<path d="M2140 2078 c0 -216 5 -424 10 -463 29 -199 172 -315 388 -315 119 1
224 35 325 106 l47 34 0 -55 0 -55 135 0 135 0 0 570 0 570 -135 0 -135 0 0
-292 c0 -399 -13 -470 -95 -550 -89 -86 -251 -91 -331 -11 -60 59 -64 94 -64
495 l0 358 -140 0 -140 0 0 -392z"/>
</g>
</svg>
